<svg width="20" height="21" viewBox="0 0 20 21" fill="none" xmlns="http://www.w3.org/2000/svg">
<path d="M1.13965 19.5693C1.65527 20.0732 2.49902 20.0732 2.99121 19.5811L10.1982 12.374L17.4053 19.5811C17.9092 20.0732 18.7529 20.085 19.2568 19.5693C19.7607 19.0654 19.7607 18.2217 19.2686 17.7295L12.0615 10.5107L19.2686 3.30371C19.7607 2.81152 19.7725 1.95605 19.2568 1.46387C18.7412 0.959961 17.9092 0.959961 17.4053 1.45215L10.1982 8.65918L2.99121 1.45215C2.49902 0.959961 1.64355 0.948242 1.13965 1.45215C0.635742 1.96777 0.647461 2.82324 1.13965 3.30371L8.34668 10.5107L1.13965 17.7295C0.647461 18.21 0.635742 19.0771 1.13965 19.5693Z" fill="white"/>
</svg>
