<svg width="205" height="104" viewBox="0 0 205 104" fill="none" xmlns="http://www.w3.org/2000/svg">
<path d="M149.5 26.3252H148.51C146.316 26.3252 144.539 27.9244 144.539 29.9013V80.3863C144.539 82.3614 146.316 83.9607 148.51 83.9607H149.5C151.693 83.9607 153.472 82.3614 153.472 80.3863V29.9013C153.472 27.9244 151.693 26.3252 149.5 26.3252Z" fill="#A9CF54"/>
<path d="M162.854 30.3447H160.62C158.644 30.3447 157.047 31.944 157.047 33.9174V74.1299C157.047 76.1033 158.644 77.7043 160.62 77.7043H162.854C164.827 77.7043 166.43 76.1033 166.43 74.1299V33.9191C166.428 31.9457 164.826 30.3447 162.854 30.3447Z" fill="#A9CF54"/>
<path d="M172.685 50.676V44.7559H168.959V46.4299V62.6277H172.612V57.9344H183.408V50.676H172.685Z" fill="#A9CF54"/>
<path d="M56.121 26.3252H55.1291C52.9347 26.3252 51.1562 27.9244 51.1562 29.9013V80.3863C51.1562 82.3614 52.9347 83.9607 55.1291 83.9607H56.121C58.312 83.9607 60.0939 82.3614 60.0939 80.3863V29.9013C60.0922 27.9244 58.312 26.3252 56.121 26.3252Z" fill="#A9CF54"/>
<path d="M44.008 32.5781H41.7736C39.8002 32.5781 38.1992 34.1809 38.1992 36.1542V76.3668C38.1992 78.342 39.7985 79.9412 41.7736 79.9412H44.008C45.9797 79.9412 47.5824 78.342 47.5824 76.3668V36.1525C47.5806 34.1809 45.9797 32.5781 44.008 32.5781Z" fill="#A9CF54"/>
<path d="M32.0169 50.676H21.2207V57.9344H31.9438V62.6277H35.6644V44.7559H32.0169V50.676Z" fill="#A9CF54"/>
<path d="M138.652 50.5995H76.1766H74.2381H65.4535V44.7924H61.7295V45.5372V62.8122H65.3804V57.8996H74.2381H76.1766H138.577V62.6277H142.303V44.7559H138.652V50.5995Z" fill="#A9CF54"/>
<path d="M62.0063 97.4709C63.9854 97.4709 64.9749 98.1759 64.9749 99.5858C64.9749 100.061 64.8666 100.488 64.65 100.866C64.4292 101.24 64.1234 101.529 63.7327 101.733C63.3377 101.936 62.8897 102.038 62.3885 102.038C62.1592 102.038 61.8895 102.026 61.5795 102C61.4521 101.992 61.2992 101.983 61.1209 101.975C60.9425 101.966 60.7492 101.962 60.5412 101.962L59.6748 101.975C59.5219 101.983 59.3032 101.987 59.0186 101.987C59.0017 101.987 58.9932 101.962 58.9932 101.911C58.9932 101.86 59.0017 101.835 59.0186 101.835C59.3457 101.835 59.5856 101.811 59.7385 101.764C59.8914 101.718 59.9976 101.635 60.057 101.516C60.1165 101.397 60.1462 101.21 60.1462 100.955V95.0247C60.1462 94.7699 60.1186 94.583 60.0634 94.4641C60.0082 94.3409 59.9062 94.256 59.7576 94.2093C59.609 94.1626 59.3711 94.1392 59.0441 94.1392C59.0186 94.1392 59.0059 94.1137 59.0059 94.0628C59.0059 94.0118 59.0186 93.9863 59.0441 93.9863H64.0894C64.1404 93.9863 64.1744 93.9969 64.1913 94.0182C64.2083 94.0394 64.2211 94.0798 64.2296 94.1392L64.3952 95.7828C64.3952 95.8082 64.374 95.821 64.3315 95.821C64.289 95.821 64.2593 95.8082 64.2423 95.7828C64.1574 95.3029 63.9811 94.927 63.7136 94.6552C63.446 94.3792 63.1148 94.2411 62.7198 94.2411H61.9936C61.6921 94.2411 61.4712 94.2645 61.3311 94.3112C61.1909 94.3579 61.0954 94.4407 61.0444 94.5597C60.9934 94.6743 60.968 94.8548 60.968 95.1011V97.5346C61.3672 97.4921 61.7133 97.4709 62.0063 97.4709ZM62.1337 101.809C62.8132 101.809 63.308 101.654 63.618 101.344C63.9238 101.034 64.0767 100.558 64.0767 99.9171C64.0767 99.1314 63.8728 98.5687 63.4651 98.229C63.0532 97.8935 62.4629 97.7257 61.6942 97.7257C61.4394 97.7257 61.1973 97.7427 60.968 97.7767V100.955C60.968 101.253 61.0444 101.469 61.1973 101.605C61.3502 101.741 61.6623 101.809 62.1337 101.809Z" fill="black"/>
<path d="M73.256 95.999C73.273 95.999 73.2815 96.0245 73.2815 96.0755C73.2815 96.1264 73.273 96.1519 73.256 96.1519C73.0947 96.1519 72.9354 96.222 72.7783 96.3621C72.6211 96.5023 72.4661 96.7443 72.3132 97.0883L70.3384 101.274C70.194 101.571 70.0327 101.79 69.8543 101.93C69.6717 102.074 69.4445 102.146 69.1727 102.146C68.9433 102.146 68.7607 102.098 68.6248 102C68.4889 101.906 68.421 101.771 68.421 101.592C68.421 101.465 68.4592 101.359 68.5356 101.274C68.6121 101.189 68.7225 101.146 68.8669 101.146C68.9773 101.146 69.0623 101.167 69.1217 101.21C69.1812 101.252 69.2406 101.32 69.3001 101.414C69.351 101.499 69.3978 101.558 69.4402 101.592C69.4827 101.626 69.5443 101.643 69.625 101.643C69.8033 101.643 69.9605 101.494 70.0964 101.197L70.211 100.942L67.9177 97.0629C67.7139 96.7274 67.5313 96.4917 67.3699 96.3558C67.2085 96.2199 67.0153 96.1519 66.7902 96.1519C66.7647 96.1519 66.752 96.1264 66.752 96.0755C66.752 96.0245 66.7647 95.999 66.7902 95.999L67.3444 96.0118C67.6332 96.0288 67.8413 96.0372 67.9687 96.0372C68.1725 96.0372 68.4295 96.0288 68.7395 96.0118L69.2491 95.999C69.2746 95.999 69.2873 96.0245 69.2873 96.0755C69.2873 96.1264 69.2746 96.1519 69.2491 96.1519C69.0453 96.1519 68.8818 96.1838 68.7586 96.2475C68.6354 96.3112 68.5739 96.4067 68.5739 96.5341C68.5739 96.6361 68.6206 96.7677 68.714 96.9291L70.606 100.095L72.0521 96.9992C72.12 96.842 72.154 96.7125 72.154 96.6106C72.154 96.3048 71.8609 96.1519 71.2749 96.1519C71.2494 96.1519 71.2367 96.1264 71.2367 96.0755C71.2367 96.0245 71.2494 95.999 71.2749 95.999L71.7081 96.0118C71.9459 96.0288 72.1646 96.0372 72.3642 96.0372C72.5341 96.0372 72.7209 96.0288 72.9248 96.0118L73.256 95.999Z" fill="black"/>
<path d="M80.2383 101.834C80.2978 101.834 80.3339 101.841 80.3466 101.853C80.3593 101.866 80.3657 101.911 80.3657 101.987L80.353 102.312C80.3105 102.762 80.2893 103.304 80.2893 103.936C80.2893 103.979 80.2638 104 80.2128 104C80.1619 104 80.1364 103.979 80.1364 103.936C80.1364 103.219 80.009 102.715 79.7542 102.427C79.5036 102.134 79.149 101.987 78.6903 101.987H75.6135C75.1973 101.987 74.8703 102.134 74.6324 102.427C74.3989 102.715 74.2821 103.219 74.2821 103.936C74.2821 103.979 74.2566 104 74.2056 104C74.1547 104 74.1292 103.979 74.1292 103.936C74.1292 103.431 74.1207 103.051 74.1037 102.796C74.0867 102.541 74.0782 102.384 74.0782 102.325C74.0612 102.151 74.0527 102.038 74.0527 101.987C74.0527 101.911 74.0591 101.866 74.0718 101.853C74.0846 101.841 74.1207 101.834 74.1801 101.834C75.331 101.834 76.0275 100.307 76.2696 97.254C76.2781 97.169 76.2823 97.0565 76.2823 96.9163C76.2823 96.6021 76.2186 96.3961 76.0912 96.2984C75.9596 96.2008 75.7154 96.1519 75.3586 96.1519C75.3332 96.1519 75.3204 96.1264 75.3204 96.0755C75.3204 96.0245 75.3332 95.999 75.3586 95.999H80.3148C80.3317 95.999 80.3402 96.0245 80.3402 96.0755C80.3402 96.1264 80.3317 96.1519 80.3148 96.1519C80.0345 96.1519 79.8264 96.1774 79.6905 96.2284C79.5588 96.2793 79.4696 96.3664 79.4229 96.4895C79.3762 96.6127 79.3528 96.8038 79.3528 97.0629V100.955C79.3528 101.032 79.3507 101.182 79.3465 101.407C79.3422 101.633 79.4017 101.76 79.5248 101.79C79.648 101.819 79.8858 101.834 80.2383 101.834ZM78.5884 100.955V97.0374C78.5884 96.7443 78.5778 96.5511 78.5565 96.4577C78.5396 96.3643 78.4928 96.3069 78.4164 96.2857C78.34 96.2645 78.1871 96.2538 77.9577 96.2538H77.4226C77.1721 96.2538 76.9979 96.2708 76.9003 96.3048C76.8026 96.3388 76.7368 96.4025 76.7028 96.4959C76.6688 96.5893 76.6391 96.7613 76.6136 97.0119C76.5032 98.2647 76.346 99.2776 76.1422 100.051C75.9341 100.823 75.6304 101.376 75.2312 101.707H76.8939C77.4927 101.707 77.894 101.696 78.0979 101.675C78.3017 101.654 78.4334 101.596 78.4928 101.503C78.5565 101.41 78.5884 101.227 78.5884 100.955Z" fill="black"/>
<path d="M85.6145 98.6236C86.3492 98.6236 86.9076 98.7552 87.2899 99.0186C87.6763 99.2819 87.8696 99.6662 87.8696 100.172C87.8696 100.728 87.6466 101.178 87.2007 101.522C86.759 101.866 86.1878 102.038 85.4871 102.038C85.2662 102.038 85.005 102.025 84.7035 102C84.5846 101.991 84.4445 101.983 84.2831 101.974C84.1217 101.966 83.9476 101.962 83.7607 101.962L83.0154 101.974C82.871 101.983 82.6756 101.987 82.4293 101.987C82.4081 101.987 82.3975 101.962 82.3975 101.911C82.3975 101.86 82.4081 101.834 82.4293 101.834C82.7181 101.834 82.9283 101.813 83.06 101.771C83.1916 101.728 83.2808 101.645 83.3275 101.522C83.3742 101.399 83.3976 101.21 83.3976 100.955V97.0374C83.3976 96.7783 83.3742 96.5893 83.3275 96.4704C83.2808 96.3515 83.1916 96.2687 83.06 96.222C82.9283 96.1753 82.7223 96.1519 82.4421 96.1519C82.4251 96.1519 82.4166 96.1264 82.4166 96.0755C82.4166 96.0245 82.4251 95.999 82.4421 95.999L83.0154 96.0118C83.3381 96.0288 83.5908 96.0372 83.7734 96.0372C83.9858 96.0372 84.2533 96.0288 84.5761 96.0118L85.1303 95.999C85.1473 95.999 85.1558 96.0245 85.1558 96.0755C85.1558 96.1264 85.1473 96.1519 85.1303 96.1519C84.8543 96.1519 84.6483 96.1774 84.5124 96.2284C84.3765 96.2793 84.2852 96.3664 84.2385 96.4895C84.1918 96.6127 84.1684 96.8038 84.1684 97.0629V98.7637C84.7332 98.6703 85.2153 98.6236 85.6145 98.6236ZM85.245 101.834C85.848 101.834 86.2961 101.713 86.5891 101.471C86.8779 101.229 87.0223 100.881 87.0223 100.426C87.0223 99.9253 86.8503 99.5388 86.5063 99.267C86.1581 98.9994 85.6697 98.8657 85.0411 98.8657C84.7651 98.8657 84.4742 98.8911 84.1684 98.9421V100.955C84.1684 101.278 84.2406 101.505 84.385 101.637C84.5294 101.768 84.8161 101.834 85.245 101.834Z" fill="black"/>
<path d="M97.6864 98.6747C98.3022 98.7172 98.7779 98.8616 99.1134 99.1079C99.4446 99.3542 99.6103 99.7088 99.6103 100.172C99.6103 100.728 99.3873 101.178 98.9414 101.522C98.4997 101.866 97.9285 102.038 97.2278 102.038C97.0069 102.038 96.7457 102.025 96.4442 102C96.3253 101.992 96.1852 101.983 96.0238 101.975C95.8624 101.966 95.6883 101.962 95.5014 101.962L94.7561 101.975C94.6117 101.983 94.4163 101.987 94.17 101.987C94.153 101.987 94.1445 101.962 94.1445 101.911C94.1445 101.86 94.153 101.834 94.17 101.834C94.4588 101.834 94.669 101.813 94.8007 101.771C94.9323 101.728 95.0215 101.645 95.0682 101.522C95.1149 101.399 95.1383 101.21 95.1383 100.955V97.0375C95.1383 96.7785 95.1149 96.5895 95.0682 96.4706C95.0215 96.3517 94.9323 96.2688 94.8007 96.2221C94.669 96.1754 94.463 96.152 94.1828 96.152C94.1658 96.152 94.1573 96.1266 94.1573 96.0756C94.1573 96.0246 94.1658 95.9992 94.1828 95.9992L94.7561 96.0119C95.0831 96.0289 95.3315 96.0374 95.5014 96.0374C95.7307 96.0374 95.9643 96.0246 96.2021 95.9992C96.2871 95.9907 96.4102 95.9822 96.5716 95.9737C96.7288 95.9652 96.8668 95.9609 96.9857 95.9609C97.6015 95.9609 98.0793 96.0714 98.419 96.2922C98.7588 96.513 98.9286 96.8252 98.9286 97.2286C98.9286 97.5599 98.8182 97.8508 98.5974 98.1014C98.3765 98.3562 98.0729 98.5473 97.6864 98.6747ZM96.6544 96.1266C96.4463 96.1266 96.2913 96.1499 96.1894 96.1966C96.0875 96.2434 96.0153 96.3325 95.9728 96.4642C95.9303 96.5958 95.9091 96.7954 95.9091 97.063V98.6747C96.0535 98.6832 96.2595 98.6874 96.527 98.6874C97.0876 98.6874 97.4932 98.6089 97.7438 98.4517C97.9986 98.2903 98.126 97.9718 98.126 97.4962C98.126 97.0163 98.0007 96.668 97.7501 96.4515C97.5038 96.2349 97.1386 96.1266 96.6544 96.1266ZM96.9984 101.834C98.1748 101.834 98.763 101.378 98.763 100.465C98.763 99.9806 98.5846 99.5963 98.2279 99.3117C97.8669 99.0314 97.3169 98.8913 96.578 98.8913C96.2765 98.8913 96.0535 98.8998 95.9091 98.9168V100.955C95.9091 101.278 95.9834 101.505 96.1321 101.637C96.2807 101.769 96.5695 101.834 96.9984 101.834Z" fill="black"/>
<path d="M112.707 98.9554C112.707 99.6137 112.437 100.153 111.898 100.573C111.354 100.998 110.63 101.244 109.726 101.312C109.743 101.584 109.813 101.765 109.936 101.854C110.059 101.943 110.305 101.988 110.675 101.988C110.7 101.988 110.713 102.013 110.713 102.064C110.713 102.119 110.7 102.147 110.675 102.147L110.108 102.134C109.802 102.117 109.543 102.109 109.331 102.109C109.14 102.109 108.883 102.117 108.56 102.134L107.98 102.147C107.955 102.147 107.942 102.119 107.942 102.064C107.942 102.013 107.955 101.988 107.98 101.988C108.35 101.988 108.6 101.945 108.732 101.86C108.864 101.775 108.934 101.601 108.942 101.338C108.004 101.304 107.273 101.079 106.751 100.663C106.224 100.251 105.961 99.7028 105.961 99.0191C105.961 98.2929 106.245 97.7365 106.815 97.3501C107.379 96.9594 108.093 96.7343 108.955 96.6748C108.938 96.403 108.866 96.2225 108.738 96.1333C108.611 96.0442 108.363 95.9996 107.993 95.9996C107.968 95.9996 107.955 95.9741 107.955 95.9231C107.955 95.8722 107.968 95.8467 107.993 95.8467L108.56 95.8594C108.883 95.8764 109.14 95.8849 109.331 95.8849C109.543 95.8849 109.811 95.8764 110.133 95.8594L110.675 95.8467C110.7 95.8467 110.713 95.8722 110.713 95.9231C110.713 95.9741 110.7 95.9996 110.675 95.9996C110.322 95.9996 110.083 96.0463 109.955 96.1397C109.828 96.2331 109.756 96.4115 109.739 96.6748C110.686 96.7173 111.418 96.9487 111.936 97.3692C112.45 97.7854 112.707 98.3141 112.707 98.9554ZM106.846 98.9936C106.846 100.353 107.549 101.079 108.955 101.172V101.109V96.8787V96.815C108.271 96.8659 107.749 97.0677 107.388 97.4201C107.027 97.7684 106.846 98.2929 106.846 98.9936ZM109.726 101.172C111.123 101.045 111.822 100.31 111.822 98.9681C111.822 98.2844 111.648 97.7684 111.299 97.4201C110.951 97.0677 110.427 96.8659 109.726 96.815V96.9169V101.109V101.172Z" fill="black"/>
<path d="M117.893 102.147C117.298 102.147 116.767 102.005 116.3 101.72C115.833 101.44 115.472 101.06 115.217 100.58C114.962 100.104 114.835 99.5882 114.835 99.0318C114.835 98.3651 115.007 97.7917 115.351 97.3119C115.699 96.8277 116.139 96.4625 116.67 96.2162C117.205 95.9698 117.75 95.8467 118.307 95.8467C118.901 95.8467 119.428 95.9932 119.887 96.2862C120.341 96.5793 120.691 96.9615 120.938 97.4329C121.18 97.9 121.301 98.3906 121.301 98.9044C121.301 99.4778 121.148 100.013 120.842 100.51C120.532 101.011 120.118 101.408 119.6 101.701C119.078 101.998 118.509 102.147 117.893 102.147ZM118.224 101.873C118.891 101.873 119.424 101.639 119.823 101.172C120.218 100.701 120.415 100.051 120.415 99.2229C120.415 98.6539 120.316 98.1336 120.116 97.6622C119.916 97.1908 119.623 96.815 119.237 96.5347C118.855 96.2544 118.398 96.1142 117.867 96.1142C117.183 96.1142 116.655 96.3414 116.281 96.7959C115.907 97.2545 115.72 97.8937 115.72 98.7133C115.72 99.3036 115.82 99.8366 116.02 100.312C116.219 100.792 116.508 101.172 116.886 101.453C117.268 101.733 117.714 101.873 118.224 101.873Z" fill="black"/>
<path d="M125.141 100.904C125.141 101.176 125.171 101.374 125.231 101.497C125.29 101.62 125.407 101.707 125.581 101.758C125.755 101.809 126.031 101.834 126.409 101.834C126.435 101.834 126.447 101.86 126.447 101.911C126.447 101.962 126.435 101.987 126.409 101.987C126.103 101.987 125.868 101.983 125.702 101.975L124.759 101.962L124.001 101.975C123.857 101.983 123.661 101.987 123.415 101.987C123.398 101.987 123.39 101.962 123.39 101.911C123.39 101.86 123.398 101.834 123.415 101.834C123.695 101.834 123.899 101.813 124.027 101.771C124.154 101.728 124.241 101.645 124.288 101.522C124.335 101.399 124.358 101.21 124.358 100.955V97.0375C124.358 96.7785 124.335 96.5895 124.288 96.4706C124.241 96.3517 124.152 96.2688 124.02 96.2221C123.889 96.1754 123.687 96.152 123.415 96.152C123.398 96.152 123.39 96.1266 123.39 96.0756C123.39 96.0246 123.398 95.9992 123.415 95.9992L123.988 96.0119C124.311 96.0289 124.564 96.0374 124.747 96.0374C124.891 96.0374 125.029 96.0331 125.161 96.0246C125.292 96.0161 125.405 96.0077 125.498 95.9992C125.762 95.9737 126.01 95.9609 126.244 95.9609C127.649 95.9609 128.352 96.4812 128.352 97.5217C128.352 97.9294 128.248 98.2734 128.04 98.5537C127.832 98.8297 127.569 99.0357 127.25 99.1716C126.927 99.3075 126.596 99.3754 126.256 99.3754C126.023 99.3754 125.834 99.3584 125.689 99.3245C125.672 99.3245 125.664 99.3032 125.664 99.2608C125.664 99.1928 125.685 99.1588 125.728 99.1588C125.855 99.1843 125.989 99.1971 126.129 99.1971C126.503 99.1971 126.819 99.076 127.078 98.8339C127.341 98.5919 127.473 98.2394 127.473 97.7765C127.473 97.2414 127.333 96.8337 127.053 96.5534C126.777 96.2773 126.403 96.1393 125.931 96.1393C125.719 96.1393 125.56 96.1563 125.454 96.1903C125.347 96.2242 125.269 96.3049 125.218 96.4323C125.167 96.5597 125.141 96.77 125.141 97.063V100.904Z" fill="black"/>
<path d="M138.521 101.834C138.538 101.834 138.546 101.86 138.546 101.911C138.546 101.962 138.538 101.987 138.521 101.987C138.283 101.987 138.096 101.983 137.96 101.974L137.202 101.962L136.336 101.974C136.187 101.983 135.985 101.987 135.731 101.987C135.714 101.987 135.705 101.962 135.705 101.911C135.705 101.86 135.714 101.834 135.731 101.834C136.049 101.834 136.285 101.811 136.438 101.764C136.591 101.717 136.692 101.635 136.743 101.516C136.794 101.397 136.811 101.21 136.794 100.955L136.641 96.6361L134.437 101.898C134.42 101.932 134.391 101.949 134.348 101.949C134.297 101.949 134.263 101.932 134.246 101.898L131.8 97.0629L131.775 97.0119L131.66 100.592C131.651 101.046 131.711 101.367 131.838 101.554C131.966 101.741 132.184 101.834 132.494 101.834C132.52 101.834 132.533 101.86 132.533 101.911C132.533 101.962 132.52 101.987 132.494 101.987C132.312 101.987 132.174 101.983 132.08 101.974L131.52 101.962L130.978 101.974C130.868 101.983 130.715 101.987 130.52 101.987C130.503 101.987 130.494 101.962 130.494 101.911C130.494 101.86 130.503 101.834 130.52 101.834C130.834 101.834 131.057 101.741 131.189 101.554C131.316 101.367 131.388 101.046 131.405 100.592L131.532 96.6233C131.286 96.309 130.983 96.1519 130.622 96.1519C130.596 96.1519 130.583 96.1264 130.583 96.0755C130.583 96.0245 130.596 95.999 130.622 95.999L131.329 96.0118L131.94 95.999C132.051 95.999 132.14 96.0372 132.208 96.1137C132.276 96.1901 132.384 96.3727 132.533 96.6615L134.628 100.84L136.527 96.3175C136.561 96.2241 136.614 96.1477 136.686 96.0882C136.758 96.0288 136.833 95.999 136.909 95.999L137.591 96.0118L138.444 95.999C138.461 95.999 138.47 96.0245 138.47 96.0755C138.47 96.1264 138.461 96.1519 138.444 96.1519C138.062 96.1519 137.795 96.2092 137.642 96.3239C137.484 96.4386 137.414 96.6679 137.431 97.0119L137.591 100.955C137.608 101.218 137.637 101.41 137.68 101.528C137.722 101.647 137.805 101.728 137.928 101.771C138.051 101.813 138.249 101.834 138.521 101.834Z" fill="black"/>
<path d="M145.374 100.286C145.374 100.261 145.397 100.248 145.444 100.248C145.491 100.248 145.514 100.261 145.514 100.286C145.454 100.902 145.425 101.405 145.425 101.796C145.425 101.864 145.412 101.913 145.386 101.943C145.361 101.972 145.31 101.987 145.234 101.987H140.545C140.528 101.987 140.52 101.962 140.52 101.911C140.52 101.86 140.528 101.834 140.545 101.834C140.825 101.834 141.029 101.813 141.157 101.771C141.288 101.728 141.377 101.645 141.424 101.522C141.471 101.399 141.494 101.21 141.494 100.955V97.0374C141.494 96.7783 141.471 96.5893 141.424 96.4704C141.377 96.3515 141.288 96.2687 141.157 96.222C141.029 96.1753 140.825 96.1519 140.545 96.1519C140.528 96.1519 140.52 96.1264 140.52 96.0755C140.52 96.0245 140.528 95.999 140.545 95.999H144.998C145.083 95.999 145.125 96.033 145.125 96.1009L145.138 96.8909C145.151 97.0565 145.157 97.2625 145.157 97.5088C145.157 97.5343 145.13 97.547 145.074 97.547C145.023 97.547 144.998 97.5343 144.998 97.5088C144.964 97.1138 144.822 96.7911 144.571 96.5405C144.32 96.2899 144.01 96.1647 143.641 96.1647H143.284C142.987 96.1647 142.77 96.188 142.634 96.2347C142.494 96.2814 142.399 96.3643 142.348 96.4832C142.297 96.6021 142.271 96.7911 142.271 97.0501V98.802C143.1 98.7935 143.666 98.7701 143.972 98.7319C144.274 98.6937 144.446 98.6746 144.488 98.6746C144.531 98.6746 144.552 98.7637 144.552 98.9421C144.552 99.1375 144.531 99.2351 144.488 99.2351C144.454 99.2351 144.284 99.2118 143.979 99.1651C143.669 99.1184 143.1 99.0865 142.271 99.0695V100.904C142.271 101.15 142.297 101.335 142.348 101.458C142.399 101.582 142.496 101.666 142.641 101.713C142.781 101.76 142.995 101.783 143.284 101.783H143.902C144.242 101.783 144.548 101.645 144.819 101.369C145.096 101.093 145.28 100.732 145.374 100.286Z" fill="black"/>
<path d="M20.3625 63.8778C20.4049 63.8778 20.4262 63.9182 20.4262 63.9988C20.4262 64.0753 20.4049 64.1135 20.3625 64.1135C19.9378 64.1135 19.6065 64.1071 19.3687 64.0944L18.0182 64.0753L16.604 64.0944C16.3661 64.1071 16.0434 64.1135 15.6357 64.1135C15.5932 64.1135 15.572 64.0753 15.572 63.9988C15.572 63.9182 15.5932 63.8778 15.6357 63.8778C16.1368 63.8778 16.5063 63.8438 16.7441 63.7759C16.9819 63.7122 17.1412 63.5827 17.2219 63.3873C17.3026 63.1962 17.3429 62.9032 17.3429 62.5082V53.3795C17.3429 52.9294 17.3196 52.6321 17.2729 52.4877C17.2261 52.3391 17.1094 52.2456 16.9225 52.2074C16.7399 52.1692 16.3619 52.1501 15.7886 52.1501H11.7179C11.1191 52.1501 10.722 52.1692 10.5267 52.2074C10.3271 52.2456 10.1997 52.3412 10.1445 52.4941C10.0935 52.647 10.068 52.9421 10.068 53.3795V62.5082C10.068 62.9032 10.1105 63.1962 10.1954 63.3873C10.2804 63.5827 10.4396 63.7122 10.6732 63.7759C10.9068 63.8438 11.2805 63.8778 11.7944 63.8778C11.8241 63.8778 11.839 63.9182 11.839 63.9988C11.839 64.0753 11.8241 64.1135 11.7944 64.1135C11.3867 64.1135 11.0618 64.1071 10.8197 64.0944L9.39277 64.0753L8.04227 64.0944C7.8002 64.1071 7.46681 64.1135 7.04213 64.1135C7.01665 64.1135 7.00391 64.0753 7.00391 63.9988C7.00391 63.9182 7.01665 63.8778 7.04213 63.8778C7.5475 63.8778 7.92336 63.8438 8.16967 63.7759C8.41599 63.7122 8.58162 63.5827 8.66656 63.3873C8.7515 63.1962 8.79396 62.9032 8.79396 62.5082V53.5388C8.79396 53.1268 8.7515 52.8083 8.66656 52.5832C8.58162 52.3582 8.41174 52.1925 8.15693 52.0864C7.90637 51.9802 7.54326 51.9271 7.06761 51.9271C7.03789 51.9271 7.02302 51.8889 7.02302 51.8124C7.02302 51.7318 7.03789 51.6914 7.06761 51.6914C7.51778 51.6914 7.94672 51.6978 8.35442 51.7105C10.0787 51.736 11.8878 51.7487 13.7819 51.7487C15.5061 51.7487 17.4809 51.7296 19.7063 51.6914H20.3625C20.4049 51.6914 20.4262 51.7318 20.4262 51.8124C20.4262 51.8889 20.4049 51.9271 20.3625 51.9271C19.6745 51.9271 19.2137 52.0481 18.9801 52.2902C18.7508 52.528 18.6361 52.9442 18.6361 53.5388V62.5082C18.6361 62.9032 18.6786 63.1962 18.7635 63.3873C18.8484 63.5827 19.0098 63.7122 19.2476 63.7759C19.4897 63.8438 19.8613 63.8778 20.3625 63.8778Z" fill="black"/>
<path d="M26.7646 62.4251C26.7646 62.8498 26.822 63.1577 26.9366 63.3488C27.0471 63.5399 27.2637 63.6758 27.5864 63.7565C27.9134 63.8372 28.4273 63.8775 29.128 63.8775C29.1705 63.8775 29.1917 63.9179 29.1917 63.9986C29.1917 64.075 29.1705 64.1132 29.128 64.1132C28.5844 64.1132 28.1619 64.1069 27.8603 64.0941L26.1276 64.075L24.7962 64.0941C24.5457 64.1069 24.208 64.1132 23.7833 64.1132C23.7579 64.1132 23.7451 64.075 23.7451 63.9986C23.7451 63.9179 23.7579 63.8775 23.7833 63.8775C24.2845 63.8775 24.6518 63.8436 24.8854 63.7756C25.119 63.7119 25.274 63.5824 25.3504 63.387C25.4311 63.1959 25.4715 62.9029 25.4715 62.5079V53.3028C25.4715 52.9036 25.4311 52.6106 25.3504 52.4237C25.274 52.2411 25.119 52.1137 24.8854 52.0415C24.6518 51.965 24.2845 51.9268 23.7833 51.9268C23.7579 51.9268 23.7451 51.8886 23.7451 51.8122C23.7451 51.7315 23.7579 51.6911 23.7833 51.6911L24.7771 51.7102C25.3334 51.7357 25.7772 51.7485 26.1085 51.7485C26.4398 51.7485 26.8114 51.7293 27.2233 51.6911C27.3804 51.6911 27.631 51.6805 27.975 51.6593C28.319 51.6423 28.6184 51.6338 28.8732 51.6338C30.0921 51.6338 31.0689 51.9056 31.8036 52.4492C32.5383 52.9885 32.9056 53.8167 32.9056 54.9336C32.9056 55.8085 32.6912 56.5432 32.2622 57.1377C31.829 57.7323 31.2748 58.1761 30.5996 58.4691C29.9243 58.7622 29.23 58.9087 28.5165 58.9087C28.13 58.9087 27.8115 58.8747 27.5609 58.8068C27.5185 58.8068 27.4972 58.7728 27.4972 58.7048C27.4972 58.6666 27.5078 58.6284 27.5291 58.5902C27.5503 58.5477 27.5737 58.535 27.5992 58.5519C27.8115 58.6029 28.0493 58.6284 28.3126 58.6284C29.1875 58.6284 29.9264 58.3439 30.5295 57.7748C31.1326 57.2057 31.4341 56.3839 31.4341 55.3095C31.4341 54.2605 31.1495 53.4345 30.5805 52.8314C30.0114 52.2284 29.283 51.9268 28.3954 51.9268C27.9198 51.9268 27.5758 51.9544 27.3635 52.0096C27.1511 52.0606 26.9982 52.1838 26.9048 52.3791C26.8114 52.5702 26.7646 52.8909 26.7646 53.341V62.4251Z" fill="black"/>
<path d="M42.8881 64.3554C41.6523 64.3554 40.5545 64.0666 39.5947 63.489C38.6349 62.9114 37.8938 62.13 37.3714 61.1447C36.8491 60.1552 36.5879 59.0786 36.5879 57.915C36.5879 56.5475 36.9319 55.3775 37.6199 54.405C38.3079 53.4324 39.1912 52.6998 40.2699 52.2072C41.3529 51.7188 42.4571 51.4746 43.5825 51.4746C44.8396 51.4746 45.9459 51.7698 46.9014 52.3601C47.857 52.9462 48.5896 53.7233 49.0992 54.6916C49.6088 55.6599 49.8636 56.6876 49.8636 57.7748C49.8636 58.981 49.5451 60.0873 48.9081 61.0938C48.271 62.1003 47.4195 62.8945 46.3536 63.4763C45.2876 64.0623 44.1325 64.3554 42.8881 64.3554ZM43.5825 63.9349C44.4828 63.9349 45.294 63.7162 46.016 63.2788C46.7379 62.8414 47.3091 62.2001 47.7296 61.355C48.1458 60.5056 48.3539 59.497 48.3539 58.3291C48.3539 57.0847 48.1224 55.9784 47.6595 55.0101C47.1923 54.0418 46.5383 53.2859 45.6974 52.7423C44.8566 52.1987 43.8734 51.9269 42.748 51.9269C41.2913 51.9269 40.151 52.3983 39.3271 53.3411C38.5075 54.2839 38.0977 55.575 38.0977 57.2143C38.0977 58.4628 38.3291 59.601 38.792 60.6287C39.2549 61.6522 39.9047 62.4592 40.7413 63.0495C41.5737 63.6398 42.5208 63.9349 43.5825 63.9349Z" fill="black"/>
<path d="M56.0673 52.0478C55.2307 52.0478 54.6043 52.2601 54.1881 52.6848C53.7677 53.1095 53.4661 53.8315 53.2835 54.8507C53.2835 54.8762 53.2474 54.8889 53.1752 54.8889C53.0988 54.8889 53.0605 54.8762 53.0605 54.8507C53.1158 54.3751 53.1752 53.7529 53.2389 52.9842C53.3069 52.2155 53.3408 51.6379 53.3408 51.2515C53.3408 51.1878 53.3769 51.1559 53.4491 51.1559C53.5213 51.1559 53.5574 51.1878 53.5574 51.2515C53.5574 51.5445 53.9163 51.691 54.634 51.691C55.7594 51.7292 57.0908 51.7484 58.6282 51.7484C59.4096 51.7484 60.2378 51.7356 61.1126 51.7101L62.4631 51.691C62.943 51.691 63.2976 51.6571 63.527 51.5891C63.7605 51.5254 63.9113 51.3937 63.9793 51.1941C63.992 51.1389 64.0302 51.1113 64.0939 51.1113C64.1619 51.1113 64.1959 51.1389 64.1959 51.1941C64.1534 51.5764 64.113 52.1603 64.0748 52.946C64.0366 53.7274 64.0175 54.3623 64.0175 54.8507C64.0175 54.8762 63.9771 54.8889 63.8964 54.8889C63.8158 54.8889 63.7754 54.8762 63.7754 54.8507C63.7372 53.8187 63.5248 53.0925 63.1384 52.6721C62.7562 52.2559 62.1213 52.0478 61.2337 52.0478C60.6348 52.0478 60.2102 52.0754 59.9596 52.1306C59.709 52.1815 59.537 52.2941 59.4436 52.4682C59.3502 52.6381 59.3035 52.929 59.3035 53.3409V62.5078C59.3035 62.9155 59.3502 63.2128 59.4436 63.3997C59.537 63.5865 59.7154 63.7118 59.9787 63.7755C60.2463 63.8435 60.6646 63.8774 61.2337 63.8774C61.2719 63.8774 61.291 63.9178 61.291 63.9985C61.291 64.0749 61.2719 64.1131 61.2337 64.1131C60.7962 64.1131 60.4459 64.1068 60.1826 64.094L58.6282 64.0749L57.1375 64.094C56.8742 64.1068 56.509 64.1131 56.0419 64.1131C56.0164 64.1131 56.0036 64.0749 56.0036 63.9985C56.0036 63.9178 56.0164 63.8774 56.0419 63.8774C56.6152 63.8774 57.0335 63.8435 57.2968 63.7755C57.5601 63.7118 57.7427 63.5823 57.8447 63.3869C57.9423 63.1958 57.9912 62.9028 57.9912 62.5078V53.3027C57.9912 52.8908 57.9445 52.602 57.851 52.4364C57.7618 52.2707 57.5898 52.1646 57.335 52.1178C57.0845 52.0711 56.6619 52.0478 56.0673 52.0478Z" fill="black"/>
<path d="M70.5991 62.4251C70.5991 62.8498 70.6543 63.1577 70.7648 63.3488C70.8794 63.5399 71.0981 63.6758 71.4209 63.7565C71.7479 63.8372 72.2618 63.8775 72.9625 63.8775C73.0007 63.8775 73.0199 63.9179 73.0199 63.9986C73.0199 64.075 73.0007 64.1132 72.9625 64.1132C72.4189 64.1132 71.9942 64.1069 71.6885 64.0941L69.9621 64.075L68.6307 64.0941C68.3759 64.1069 68.0383 64.1132 67.6178 64.1132C67.5881 64.1132 67.5732 64.075 67.5732 63.9986C67.5732 63.9179 67.5881 63.8775 67.6178 63.8775C68.119 63.8775 68.4863 63.8436 68.7199 63.7756C68.9492 63.7119 69.1042 63.5824 69.1849 63.387C69.2656 63.1959 69.306 62.9029 69.306 62.5079V53.3028C69.306 52.9036 69.2656 52.6106 69.1849 52.4237C69.1042 52.2411 68.9492 52.1137 68.7199 52.0415C68.4863 51.965 68.119 51.9268 67.6178 51.9268C67.5881 51.9268 67.5732 51.8886 67.5732 51.8122C67.5732 51.7315 67.5881 51.6911 67.6178 51.6911L68.6116 51.7102C69.1679 51.7357 69.6117 51.7485 69.943 51.7485C70.2743 51.7485 70.6437 51.7293 71.0514 51.6911C71.2128 51.6911 71.4655 51.6805 71.8095 51.6593C72.1535 51.6423 72.4508 51.6338 72.7013 51.6338C73.9202 51.6338 74.8991 51.9056 75.6381 52.4492C76.3728 52.9885 76.7401 53.8167 76.7401 54.9336C76.7401 55.8085 76.5235 56.5432 76.0903 57.1377C75.6614 57.7323 75.1093 58.1761 74.4341 58.4691C73.7588 58.7622 73.0623 58.9087 72.3446 58.9087C71.9624 58.9087 71.6439 58.8747 71.3891 58.8068C71.3508 58.8068 71.3317 58.7728 71.3317 58.7048C71.3317 58.6666 71.3423 58.6284 71.3636 58.5902C71.3806 58.5477 71.4039 58.535 71.4337 58.5519C71.646 58.6029 71.8838 58.6284 72.1471 58.6284C73.022 58.6284 73.7609 58.3439 74.364 57.7748C74.9671 57.2057 75.2686 56.3839 75.2686 55.3095C75.2686 54.2605 74.984 53.4345 74.415 52.8314C73.8459 52.2284 73.1175 51.9268 72.2299 51.9268C71.75 51.9268 71.4039 51.9544 71.1916 52.0096C70.9792 52.0606 70.8263 52.1838 70.7329 52.3791C70.6437 52.5702 70.5991 52.8909 70.5991 53.341V62.4251Z" fill="black"/>
<path d="M88.8822 61.1513C88.8822 61.1258 88.9098 61.1131 88.9651 61.1131C89.0033 61.1131 89.0394 61.1195 89.0733 61.1322C89.1073 61.1449 89.1243 61.1662 89.1243 61.1959C89.0054 62.0283 88.9459 62.901 88.9459 63.8141C88.9459 63.9203 88.9226 63.9967 88.8759 64.0434C88.8292 64.0902 88.7463 64.1135 88.6274 64.1135H80.2951C80.2696 64.1135 80.2568 64.0753 80.2568 63.9988C80.2568 63.9182 80.2696 63.8778 80.2951 63.8778C80.8004 63.8778 81.1699 63.8438 81.4035 63.7759C81.6328 63.7122 81.7921 63.5827 81.8813 63.3873C81.9662 63.1962 82.0087 62.9032 82.0087 62.5082V53.3031C82.0087 52.9039 81.9662 52.6109 81.8813 52.424C81.7921 52.2414 81.6328 52.114 81.4035 52.0418C81.1699 51.9653 80.8004 51.9271 80.2951 51.9271C80.2696 51.9271 80.2568 51.8889 80.2568 51.8124C80.2568 51.7318 80.2696 51.6914 80.2951 51.6914H88.2898C88.4087 51.6914 88.4682 51.7509 88.4682 51.8698L88.5064 54.316C88.5064 54.3542 88.4745 54.3776 88.4108 54.386C88.3429 54.3903 88.3025 54.3733 88.2898 54.3351C88.2516 53.6344 88.0392 53.0886 87.6528 52.6979C87.2705 52.303 86.7609 52.1055 86.1239 52.1055H84.9072C84.4443 52.1055 84.1045 52.1437 83.8879 52.2201C83.6671 52.2923 83.5142 52.4176 83.4293 52.596C83.3443 52.7744 83.3018 53.0419 83.3018 53.3986V57.4374H85.7226C86.3596 57.4374 86.814 57.3313 87.0858 57.1189C87.3576 56.9066 87.4935 56.5477 87.4935 56.0423C87.4935 56.0168 87.5339 56.0041 87.6145 56.0041C87.691 56.0041 87.7292 56.0168 87.7292 56.0423L87.7101 57.654C87.7101 58.0405 87.7165 58.3314 87.7292 58.5268L87.7547 59.4823C87.7547 59.5078 87.7143 59.5205 87.6337 59.5205C87.553 59.5205 87.5126 59.5078 87.5126 59.4823C87.5126 58.9005 87.3704 58.4843 87.0858 58.2337C86.8013 57.9789 86.3277 57.8515 85.6652 57.8515H83.3018V62.4254C83.3018 62.7949 83.3401 63.0667 83.4165 63.2408C83.4972 63.4149 83.6437 63.5338 83.8561 63.5975C84.0684 63.6655 84.3997 63.6994 84.8498 63.6994H86.4424C87.0752 63.6994 87.6039 63.4744 88.0286 63.0242C88.4533 62.574 88.7378 61.9497 88.8822 61.1513Z" fill="black"/>
<path d="M106.337 63.8778C106.379 63.8778 106.401 63.9182 106.401 63.9988C106.401 64.0753 106.379 64.1135 106.337 64.1135C105.929 64.1135 105.604 64.1071 105.362 64.0944L103.993 64.0753L102.54 64.0944C102.302 64.1071 101.984 64.1135 101.585 64.1135C101.546 64.1135 101.527 64.0753 101.527 63.9988C101.527 63.9182 101.546 63.8778 101.585 63.8778C102.103 63.8778 102.481 63.8438 102.718 63.7759C102.956 63.7122 103.12 63.5827 103.209 63.3873C103.294 63.1962 103.336 62.9032 103.336 62.5082V57.8515H95.7047V62.5082C95.7047 62.9032 95.7472 63.1962 95.8322 63.3873C95.9171 63.5827 96.0806 63.7122 96.3227 63.7759C96.5605 63.8438 96.9363 63.8778 97.4502 63.8778C97.4799 63.8778 97.4948 63.9182 97.4948 63.9988C97.4948 64.0753 97.4799 64.1135 97.4502 64.1135C97.0425 64.1135 96.7197 64.1071 96.4819 64.0944L95.0486 64.0753L93.679 64.0944C93.4369 64.1071 93.1035 64.1135 92.6788 64.1135C92.6534 64.1135 92.6406 64.0753 92.6406 63.9988C92.6406 63.9182 92.6534 63.8778 92.6788 63.8778C93.1842 63.8778 93.5601 63.8438 93.8064 63.7759C94.0527 63.7122 94.2183 63.5827 94.3033 63.3873C94.3882 63.1962 94.4307 62.9032 94.4307 62.5082V53.3031C94.4307 52.9039 94.3882 52.6109 94.3033 52.424C94.2183 52.2414 94.0548 52.114 93.8128 52.0418C93.5749 51.9653 93.2055 51.9271 92.7043 51.9271C92.6746 51.9271 92.6597 51.8889 92.6597 51.8124C92.6597 51.7318 92.6746 51.6914 92.7043 51.6914L93.7172 51.7105C94.2735 51.736 94.7173 51.7487 95.0486 51.7487C95.4308 51.7487 95.915 51.736 96.501 51.7105L97.4502 51.6914C97.4799 51.6914 97.4948 51.7318 97.4948 51.8124C97.4948 51.8889 97.4799 51.9271 97.4502 51.9271C96.9491 51.9271 96.5754 51.9675 96.329 52.0481C96.0827 52.1288 95.9171 52.2647 95.8322 52.4558C95.7472 52.647 95.7047 52.9421 95.7047 53.3413V57.4374H103.336V53.3413C103.336 52.9421 103.294 52.647 103.209 52.4558C103.12 52.2647 102.956 52.1288 102.718 52.0481C102.481 51.9675 102.103 51.9271 101.585 51.9271C101.546 51.9271 101.527 51.8889 101.527 51.8124C101.527 51.7318 101.546 51.6914 101.585 51.6914L102.54 51.7105C103.126 51.736 103.61 51.7487 103.993 51.7487C104.349 51.7487 104.806 51.736 105.362 51.7105L106.337 51.6914C106.379 51.6914 106.401 51.7318 106.401 51.8124C106.401 51.8889 106.379 51.9271 106.337 51.9271C105.836 51.9271 105.466 51.9653 105.228 52.0418C104.986 52.114 104.823 52.2414 104.738 52.424C104.653 52.6109 104.61 52.9039 104.61 53.3031V62.5082C104.61 62.9032 104.653 63.1962 104.738 63.3873C104.823 63.5827 104.986 63.7122 105.228 63.7759C105.466 63.8438 105.836 63.8778 106.337 63.8778Z" fill="black"/>
<path d="M123.077 63.8778C123.103 63.8778 123.115 63.9182 123.115 63.9988C123.115 64.0753 123.103 64.1135 123.077 64.1135C122.653 64.1135 122.321 64.1071 122.083 64.0944L120.707 64.0753L119.261 64.0944C119.019 64.1071 118.701 64.1135 118.306 64.1135C118.28 64.1135 118.268 64.0753 118.268 63.9988C118.268 63.9182 118.28 63.8778 118.306 63.8778C118.82 63.8778 119.198 63.8438 119.44 63.7759C119.678 63.7122 119.839 63.5827 119.924 63.3873C120.009 63.1962 120.051 62.9032 120.051 62.5082V54.2969L112.662 62.2088V62.5082C112.662 62.9032 112.704 63.1962 112.789 63.3873C112.874 63.5827 113.036 63.7122 113.273 63.7759C113.511 63.8438 113.889 63.8778 114.407 63.8778C114.433 63.8778 114.445 63.9182 114.445 63.9988C114.445 64.0753 114.433 64.1135 114.407 64.1135C113.995 64.1135 113.67 64.1071 113.433 64.0944L112.006 64.0753L110.63 64.0944C110.392 64.1071 110.061 64.1135 109.636 64.1135C109.61 64.1135 109.598 64.0753 109.598 63.9988C109.598 63.9182 109.61 63.8778 109.636 63.8778C110.141 63.8778 110.517 63.8438 110.763 63.7759C111.005 63.7122 111.171 63.5827 111.26 63.3873C111.345 63.1962 111.388 62.9032 111.388 62.5082V53.3031C111.388 52.9039 111.345 52.6109 111.26 52.424C111.171 52.2414 111.008 52.114 110.77 52.0418C110.532 51.9653 110.16 51.9271 109.655 51.9271C109.63 51.9271 109.617 51.8889 109.617 51.8124C109.617 51.7318 109.63 51.6914 109.655 51.6914L110.674 51.7105C111.231 51.736 111.674 51.7487 112.006 51.7487C112.388 51.7487 112.87 51.736 113.452 51.7105L114.407 51.6914C114.433 51.6914 114.445 51.7318 114.445 51.8124C114.445 51.8889 114.433 51.9271 114.407 51.9271C113.906 51.9271 113.532 51.9675 113.286 52.0481C113.04 52.1288 112.874 52.2647 112.789 52.4558C112.704 52.647 112.662 52.9421 112.662 53.3413V61.5335L120.051 53.6598V53.3413C120.051 52.9421 120.009 52.647 119.924 52.4558C119.839 52.2647 119.678 52.1288 119.44 52.0481C119.198 51.9675 118.82 51.9271 118.306 51.9271C118.28 51.9271 118.268 51.8889 118.268 51.8124C118.268 51.7318 118.28 51.6914 118.306 51.6914L119.261 51.7105C119.843 51.736 120.325 51.7487 120.707 51.7487C121.039 51.7487 121.497 51.736 122.083 51.7105L123.077 51.6914C123.103 51.6914 123.115 51.7318 123.115 51.8124C123.115 51.8889 123.103 51.9271 123.077 51.9271C122.572 51.9271 122.2 51.9653 121.962 52.0418C121.725 52.114 121.563 52.2414 121.478 52.424C121.389 52.6109 121.345 52.9039 121.345 53.3031V62.5082C121.345 62.9032 121.389 63.1962 121.478 63.3873C121.563 63.5827 121.725 63.7122 121.962 63.7759C122.2 63.8438 122.572 63.8778 123.077 63.8778Z" fill="black"/>
<path d="M129.474 62.4251C129.474 62.8498 129.531 63.1577 129.646 63.3488C129.76 63.5399 129.979 63.6758 130.302 63.7565C130.625 63.8372 131.138 63.8775 131.843 63.8775C131.882 63.8775 131.901 63.9179 131.901 63.9986C131.901 64.075 131.882 64.1132 131.843 64.1132C131.3 64.1132 130.875 64.1069 130.569 64.0941L128.843 64.075L127.512 64.0941C127.257 64.1069 126.917 64.1132 126.492 64.1132C126.467 64.1132 126.454 64.075 126.454 63.9986C126.454 63.9179 126.467 63.8775 126.492 63.8775C126.998 63.8775 127.367 63.8436 127.601 63.7756C127.83 63.7119 127.985 63.5824 128.066 63.387C128.146 63.1959 128.187 62.9029 128.187 62.5079V53.3028C128.187 52.9036 128.146 52.6106 128.066 52.4237C127.985 52.2411 127.83 52.1137 127.601 52.0415C127.367 51.965 126.998 51.9268 126.492 51.9268C126.467 51.9268 126.454 51.8886 126.454 51.8122C126.454 51.7315 126.467 51.6911 126.492 51.6911L127.486 51.7102C128.047 51.7357 128.493 51.7485 128.824 51.7485C129.155 51.7485 129.525 51.7293 129.932 51.6911C130.094 51.6911 130.346 51.6805 130.69 51.6593C131.034 51.6423 131.332 51.6338 131.582 51.6338C132.801 51.6338 133.78 51.9056 134.519 52.4492C135.254 52.9885 135.621 53.8167 135.621 54.9336C135.621 55.8085 135.404 56.5432 134.971 57.1377C134.542 57.7323 133.99 58.1761 133.315 58.4691C132.64 58.7622 131.943 58.9087 131.225 58.9087C130.843 58.9087 130.525 58.8747 130.27 58.8068C130.232 58.8068 130.213 58.7728 130.213 58.7048C130.213 58.6666 130.223 58.6284 130.244 58.5902C130.261 58.5477 130.285 58.535 130.315 58.5519C130.523 58.6029 130.76 58.6284 131.028 58.6284C131.903 58.6284 132.642 58.3439 133.245 57.7748C133.848 57.2057 134.149 56.3839 134.149 55.3095C134.149 54.2605 133.865 53.4345 133.296 52.8314C132.722 52.2284 131.992 51.9268 131.104 51.9268C130.629 51.9268 130.285 51.9544 130.072 52.0096C129.86 52.0606 129.707 52.1838 129.614 52.3791C129.52 52.5702 129.474 52.8909 129.474 53.341V62.4251Z" fill="black"/>
<path d="M145.596 64.3554C144.365 64.3554 143.269 64.0666 142.309 63.489C141.349 62.9114 140.606 62.13 140.079 61.1447C139.557 60.1552 139.296 59.0786 139.296 57.915C139.296 56.5475 139.64 55.3775 140.328 54.405C141.02 53.4324 141.906 52.6998 142.984 52.2072C144.063 51.7188 145.165 51.4746 146.29 51.4746C147.552 51.4746 148.66 51.7698 149.616 52.3601C150.567 52.9462 151.298 53.7233 151.807 54.6916C152.317 55.6599 152.572 56.6876 152.572 57.7748C152.572 58.981 152.255 60.0873 151.622 61.0938C150.985 62.1003 150.134 62.8945 149.068 63.4763C148.002 64.0623 146.845 64.3554 145.596 64.3554ZM146.29 63.9349C147.195 63.9349 148.008 63.7162 148.73 63.2788C149.452 62.8414 150.021 62.2001 150.438 61.355C150.854 60.5056 151.062 59.497 151.062 58.3291C151.062 57.0847 150.83 55.9784 150.368 55.0101C149.905 54.0418 149.253 53.2859 148.412 52.7423C147.571 52.1987 146.586 51.9269 145.456 51.9269C143.999 51.9269 142.861 52.3983 142.042 53.3411C141.218 54.2839 140.806 55.575 140.806 57.2143C140.806 58.4628 141.037 59.601 141.5 60.6287C141.967 61.6522 142.617 62.4592 143.449 63.0495C144.286 63.6398 145.233 63.9349 146.29 63.9349Z" fill="black"/>
<path d="M162.019 57.1186C163.063 57.1993 163.908 57.5476 164.554 58.1634C165.195 58.7792 165.516 59.5436 165.516 60.4567C165.516 61.1574 165.344 61.7944 165 62.3678C164.656 62.9368 164.182 63.3828 163.579 63.7055C162.976 64.0325 162.303 64.196 161.56 64.196C161.123 64.196 160.645 64.1748 160.127 64.1323C159.944 64.1196 159.725 64.1069 159.47 64.0941C159.22 64.0814 158.942 64.075 158.636 64.075L157.285 64.0941C157.048 64.1069 156.71 64.1132 156.273 64.1132C156.247 64.1132 156.234 64.075 156.234 63.9986C156.234 63.9179 156.247 63.8775 156.273 63.8775C156.774 63.8775 157.145 63.8414 157.387 63.7692C157.625 63.6928 157.791 63.5633 157.884 63.3806C157.973 63.1938 158.018 62.9029 158.018 62.5079V53.3028C158.018 52.9036 157.976 52.6106 157.891 52.4237C157.806 52.2411 157.644 52.1137 157.407 52.0415C157.169 51.965 156.803 51.9268 156.311 51.9268C156.273 51.9268 156.253 51.8886 156.253 51.8122C156.253 51.7315 156.273 51.6911 156.311 51.6911L157.285 51.7102C157.842 51.7357 158.292 51.7485 158.636 51.7485C158.874 51.7485 159.097 51.7421 159.305 51.7293C159.509 51.7166 159.683 51.7039 159.827 51.6911C160.239 51.6529 160.624 51.6338 160.98 51.6338C162.097 51.6338 162.934 51.8759 163.49 52.36C164.047 52.8399 164.325 53.4727 164.325 54.2584C164.325 54.8911 164.119 55.456 163.707 55.9529C163.295 56.4497 162.732 56.8383 162.019 57.1186ZM160.547 51.9268C160.203 51.9268 159.948 51.9544 159.783 52.0096C159.617 52.0606 159.494 52.1859 159.413 52.3855C159.332 52.5851 159.292 52.9036 159.292 53.341V57.1186L160.19 57.1377C161.154 57.1377 161.87 56.8893 162.337 56.3924C162.8 55.8955 163.032 55.2351 163.032 54.4112C163.032 53.6723 162.83 53.0735 162.426 52.6148C162.023 52.1562 161.396 51.9268 160.547 51.9268ZM161.261 63.8393C162.229 63.8393 162.949 63.5909 163.42 63.094C163.887 62.5971 164.121 61.8836 164.121 60.9536C164.121 59.947 163.828 59.1316 163.242 58.5074C162.651 57.8873 161.838 57.5709 160.802 57.5582C160.381 57.5412 159.878 57.5539 159.292 57.5964V62.5079C159.292 62.8519 159.343 63.1152 159.445 63.2978C159.543 63.4847 159.734 63.6206 160.018 63.7055C160.303 63.7947 160.717 63.8393 161.261 63.8393Z" fill="black"/>
<path d="M181.257 63.8778C181.287 63.8778 181.302 63.9182 181.302 63.9988C181.302 64.0753 181.287 64.1135 181.257 64.1135H178.754C178.567 64.1135 178.406 64.0647 178.27 63.967C178.13 63.8651 177.9 63.6039 177.582 63.1835C177.263 62.7588 176.694 61.9561 175.874 60.7755C175.225 59.8497 174.753 59.2063 174.46 58.8453C174.167 58.4885 173.87 58.2337 173.568 58.0808C173.263 57.9279 172.851 57.8515 172.333 57.8515C172.214 57.8515 172.129 57.8579 172.078 57.8706V62.5082C172.078 62.9032 172.12 63.1962 172.205 63.3873C172.29 63.5827 172.449 63.7122 172.683 63.7759C172.912 63.8438 173.286 63.8778 173.804 63.8778C173.83 63.8778 173.842 63.9182 173.842 63.9988C173.842 64.0753 173.83 64.1135 173.804 64.1135C173.392 64.1135 173.067 64.1071 172.829 64.0944L171.403 64.0753L170.046 64.0944C169.808 64.1071 169.477 64.1135 169.052 64.1135C169.026 64.1135 169.014 64.0753 169.014 63.9988C169.014 63.9182 169.026 63.8778 169.052 63.8778C169.557 63.8778 169.929 63.8438 170.167 63.7759C170.405 63.7122 170.568 63.5827 170.657 63.3873C170.742 63.1962 170.785 62.9032 170.785 62.5082V53.3031C170.785 52.9039 170.744 52.6109 170.664 52.424C170.583 52.2414 170.424 52.114 170.186 52.0418C169.948 51.9653 169.576 51.9271 169.071 51.9271C169.046 51.9271 169.033 51.8889 169.033 51.8124C169.033 51.7318 169.046 51.6914 169.071 51.6914L170.046 51.7105C170.602 51.736 171.054 51.7487 171.403 51.7487C171.785 51.7487 172.267 51.736 172.849 51.7105L173.804 51.6914C173.83 51.6914 173.842 51.7318 173.842 51.8124C173.842 51.8889 173.83 51.9271 173.804 51.9271C173.303 51.9271 172.931 51.9675 172.689 52.0481C172.452 52.1288 172.29 52.2647 172.205 52.4558C172.12 52.647 172.078 52.9421 172.078 53.3413V57.533C172.791 57.5075 173.235 57.4948 173.409 57.4948H173.785L176.193 54.1376C176.788 53.3137 177.085 52.7425 177.085 52.424C177.085 52.2541 177.002 52.1288 176.836 52.0481C176.671 51.9675 176.416 51.9271 176.072 51.9271C176.046 51.9271 176.034 51.8889 176.034 51.8124C176.034 51.7318 176.046 51.6914 176.072 51.6914L176.926 51.7105C177.431 51.736 177.902 51.7487 178.34 51.7487C178.79 51.7487 179.253 51.736 179.729 51.7105L180.442 51.6914C180.484 51.6914 180.506 51.7318 180.506 51.8124C180.506 51.8889 180.484 51.9271 180.442 51.9271C179.754 51.9271 179.145 52.097 178.614 52.4367C178.083 52.7765 177.514 53.3498 176.906 54.1567L174.244 57.5585C174.562 57.6094 174.836 57.7135 175.065 57.8706C175.299 58.032 175.535 58.255 175.773 58.5395C176.01 58.824 176.361 59.2976 176.824 59.9601L177.123 60.3805C177.747 61.2554 178.251 61.9243 178.633 62.3872C179.019 62.8501 179.425 63.2111 179.85 63.4701C180.274 63.7292 180.744 63.8651 181.257 63.8778Z" fill="black"/>
<path d="M197.438 63.8778C197.468 63.8778 197.483 63.9182 197.483 63.9988C197.483 64.0753 197.468 64.1135 197.438 64.1135C197.018 64.1135 196.686 64.1071 196.444 64.0944L195.075 64.0753L193.622 64.0944C193.384 64.1071 193.066 64.1135 192.667 64.1135C192.641 64.1135 192.628 64.0753 192.628 63.9988C192.628 63.9182 192.641 63.8778 192.667 63.8778C193.185 63.8778 193.563 63.8438 193.801 63.7759C194.043 63.7122 194.206 63.5827 194.291 63.3873C194.376 63.1962 194.419 62.9032 194.419 62.5082V54.2969L187.023 62.2088V62.5082C187.023 62.9032 187.067 63.1962 187.156 63.3873C187.241 63.5827 187.403 63.7122 187.641 63.7759C187.878 63.8438 188.256 63.8778 188.774 63.8778C188.8 63.8778 188.813 63.9182 188.813 63.9988C188.813 64.0753 188.8 64.1135 188.774 64.1135C188.362 64.1135 188.038 64.1071 187.8 64.0944L186.366 64.0753L184.997 64.0944C184.759 64.1071 184.428 64.1135 184.003 64.1135C183.978 64.1135 183.965 64.0753 183.965 63.9988C183.965 63.9182 183.978 63.8778 184.003 63.8778C184.508 63.8778 184.882 63.8438 185.124 63.7759C185.371 63.7122 185.536 63.5827 185.621 63.3873C185.71 63.1962 185.755 62.9032 185.755 62.5082V53.3031C185.755 52.9039 185.71 52.6109 185.621 52.424C185.536 52.2414 185.375 52.114 185.137 52.0418C184.899 51.9653 184.528 51.9271 184.022 51.9271C183.997 51.9271 183.984 51.8889 183.984 51.8124C183.984 51.7318 183.997 51.6914 184.022 51.6914L185.035 51.7105C185.591 51.736 186.035 51.7487 186.366 51.7487C186.753 51.7487 187.237 51.736 187.819 51.7105L188.774 51.6914C188.8 51.6914 188.813 51.7318 188.813 51.8124C188.813 51.8889 188.8 51.9271 188.774 51.9271C188.269 51.9271 187.895 51.9675 187.653 52.0481C187.407 52.1288 187.241 52.2647 187.156 52.4558C187.067 52.647 187.023 52.9421 187.023 53.3413V61.5335L194.419 53.6598V53.3413C194.419 52.9421 194.376 52.647 194.291 52.4558C194.206 52.2647 194.043 52.1288 193.801 52.0481C193.563 51.9675 193.185 51.9271 192.667 51.9271C192.641 51.9271 192.628 51.8889 192.628 51.8124C192.628 51.7318 192.641 51.6914 192.667 51.6914L193.622 51.7105C194.208 51.736 194.692 51.7487 195.075 51.7487C195.406 51.7487 195.862 51.736 196.444 51.7105L197.438 51.6914C197.468 51.6914 197.483 51.7318 197.483 51.8124C197.483 51.8889 197.468 51.9271 197.438 51.9271C196.937 51.9271 196.567 51.9653 196.33 52.0418C196.088 52.114 195.924 52.2414 195.839 52.424C195.754 52.6109 195.712 52.9039 195.712 53.3031V62.5082C195.712 62.9032 195.754 63.1962 195.839 63.3873C195.924 63.5827 196.088 63.7122 196.33 63.7759C196.567 63.8438 196.937 63.8778 197.438 63.8778Z" fill="black"/>
<path d="M202.067 84.5293H2.77244C1.33866 84.5293 0.382812 84.3685 0.382812 84.1273C0.382812 83.8861 1.33866 83.7253 2.77244 83.7253H201.828C203.262 83.7253 204.218 83.8861 204.218 84.1273C204.218 84.3685 203.262 84.5293 202.067 84.5293Z" fill="#4E3F0D"/>
<path d="M102.782 47.1588L102.842 0.559718C102.842 0.224473 102.619 0.000687807 102.284 0.000254674C101.949 -0.000178459 101.725 0.223029 101.725 0.558274L101.664 47.1014C101.664 47.4367 101.887 47.6605 102.222 47.6609C102.558 47.6613 102.781 47.4381 102.782 47.1588Z" fill="#4E3F0D"/>
<path d="M89.1025 19.724C86.9379 14.4672 90.1332 11.6841 90.2879 11.5811C90.494 11.3749 90.5455 11.0657 90.3394 10.8595C90.1332 10.6534 89.824 10.6018 89.6179 10.808C89.5663 10.8595 85.701 14.2095 88.1748 20.1363C88.5871 21.1671 89.0509 21.9401 89.6179 22.8163C87.6079 23.0224 85.2887 23.1771 82.8149 23.1771C80.3926 23.1771 78.0219 23.074 76.0119 22.8163C76.5788 21.9401 77.0427 21.1671 77.455 20.1363C79.9288 14.1579 76.0119 10.808 76.0119 10.808C75.8057 10.6018 75.4965 10.6534 75.2904 10.8595C75.0842 11.0657 75.1358 11.4264 75.3419 11.5811C75.4965 11.6841 78.6919 14.5187 76.5273 19.724C75.9088 21.2186 75.2904 21.9401 74.7235 22.9709C70.652 29.98 74.9811 38.9476 75.1358 39.2568C75.5996 40.4422 76.3211 42.7099 76.1665 43.5345C76.115 43.7922 76.2696 44.1014 76.5788 44.1529C76.6304 44.1529 76.6304 44.1529 76.6819 44.1529C76.9396 44.1529 77.1457 43.9983 77.1973 43.7406C77.455 42.3491 76.2696 39.2568 76.115 38.8445C76.0634 38.793 73.3835 33.2269 74.2081 27.6608C76.4757 28.2278 80.0318 29.4647 82.2995 32.0931V36.8861C82.2995 37.1953 82.5057 37.4015 82.8149 37.4015C83.1241 37.4015 83.3303 37.1953 83.3303 36.8861V32.0931C85.5979 29.4647 89.154 28.1762 91.4217 27.6608C92.1947 33.2269 89.5148 38.793 89.4632 38.8961C89.3086 39.2568 88.1233 42.3491 88.381 43.7406C88.4325 43.9983 88.6386 44.1529 88.8963 44.1529C88.9479 44.1529 88.9479 44.1529 88.9994 44.1529C89.2571 44.1014 89.4633 43.8437 89.4117 43.5345C89.2571 42.7099 89.9271 40.4937 90.3909 39.3084C90.5971 38.9476 94.8747 29.98 90.9063 22.9709C90.2879 21.9401 89.7209 21.2186 89.1025 19.724ZM82.7633 31.1139C80.2895 28.4339 76.6304 27.197 74.3627 26.6301C74.5688 25.6509 74.9296 24.6716 75.3934 23.744C79.7742 24.2593 85.7525 24.2593 90.1332 23.744C90.5971 24.6716 90.9578 25.6509 91.164 26.6301C88.8963 27.197 85.2372 28.4339 82.7633 31.1139Z" fill="black"/>
<path d="M97.9148 27.9188C97.6056 25.445 96.9356 24.0019 95.8018 22.095C95.5441 21.7342 95.3379 21.3219 95.1318 20.9096L96.4202 21.425C96.6779 21.5281 96.9871 21.425 97.0902 21.1158C97.1933 20.8581 97.0902 20.5489 96.781 20.4458L94.2556 19.415H94.2041C94.1525 19.415 94.101 19.415 94.101 19.415C94.0495 19.415 94.0495 19.415 93.9979 19.415H93.9464C93.8949 19.415 93.8433 19.4666 93.8433 19.4666C93.8433 19.4666 93.7918 19.4666 93.7918 19.5181C93.7402 19.5697 93.7402 19.5697 93.6887 19.6212C93.6887 19.6212 93.6887 19.6212 93.6887 19.6727C93.6887 19.6727 93.6887 19.7243 93.6372 19.7243C93.0187 21.6312 92.091 22.6104 92.9156 22.9196C92.9672 22.9196 93.0187 22.9711 93.1218 22.9711C93.3279 22.9711 93.5341 22.8681 93.5856 22.6619L94.1525 21.2189C94.2041 21.2704 94.2041 21.3735 94.2556 21.425C95.3379 23.4865 96.5748 24.6719 96.9356 28.0734C97.1417 29.671 97.0387 31.4749 96.7294 33.3302C96.3171 35.4948 95.5956 37.6594 94.9772 38.8963C94.8741 39.154 94.9772 39.4632 95.2348 39.5663C95.2864 39.6178 95.3895 39.6178 95.441 39.6178C95.6471 39.6178 95.8018 39.5148 95.9048 39.3086C96.5233 38.0202 97.3479 35.7525 97.7602 33.4333C98.0179 31.4749 98.121 29.6195 97.9148 27.9188Z" fill="black"/>
<path d="M73.0226 22.2496L71.9919 19.7243C71.9919 19.7243 71.9919 19.6727 71.9403 19.6727C71.9403 19.6727 71.9403 19.6727 71.9403 19.6212C71.8888 19.5697 71.8888 19.5181 71.8372 19.5181C71.8372 19.5181 71.7857 19.5181 71.7857 19.4666C71.7342 19.415 71.6826 19.415 71.6826 19.415H71.6311C71.5796 19.415 71.5796 19.415 71.528 19.415C71.4765 19.415 71.4249 19.415 71.4249 19.415H71.3734L68.8481 20.4458C68.5904 20.5489 68.4358 20.8581 68.5388 21.1158C68.6419 21.3735 68.9511 21.5281 69.2088 21.425L70.4973 20.9096C69.4665 22.765 65.292 27.5065 69.0027 37.6079C69.1573 38.0717 69.415 38.6902 69.6727 39.2571C69.9819 39.8755 70.9096 39.4117 70.6003 38.7932C69.9819 37.5563 69.2604 35.3402 68.8481 33.2272C67.5596 26.218 70.2396 23.3834 71.3219 21.3219C71.3734 21.2704 71.3734 21.2189 71.4249 21.1158L71.9919 22.5588C72.0949 22.765 72.2496 22.8681 72.4557 22.8681C72.5072 22.8681 72.6103 22.8681 72.6619 22.8165C72.9711 22.8165 73.1257 22.5073 73.0226 22.2496Z" fill="black"/>
<path d="M130.688 20.7364C130.87 20.7339 131.041 20.8767 131.05 21.0688C131.051 21.0921 131.153 23.4153 131.153 24.5824L131.152 24.8891C131.148 26.1501 131.14 28.7776 131.61 29.719C132.147 30.7937 132.665 31.3908 133.86 31.4277C134.052 31.4339 134.203 31.6093 134.197 31.8014C134.192 31.989 134.037 32.1689 133.85 32.1689C133.847 32.1689 133.843 32.1689 133.84 32.1689C132.315 32.1689 131.597 31.27 130.989 30.0528C130.444 28.9634 130.453 26.2977 130.458 24.8825L130.459 24.5803C130.459 23.4288 130.357 21.1216 130.356 21.0983C130.348 20.9066 130.496 20.7447 130.688 20.7364Z" fill="black"/>
<path d="M109.786 28.114C109.863 28.0237 111.718 25.8975 115.389 25.7915C118.416 25.7064 120.304 26.9851 120.927 27.4881C121.672 26.9636 122.692 26.5415 124.093 26.5158C125.794 26.479 127.1 27.1557 128.025 27.9164C127.88 26.818 127.798 25.2823 127.888 24.2614C127.94 23.6778 128.031 22.9692 128.119 22.2842C128.242 21.3272 128.369 20.3372 128.381 19.7393C128.39 19.2895 128.294 18.7744 128.188 18.3492C128.172 18.5131 128.124 18.7612 127.976 18.9595C127.728 19.2926 127.272 19.3169 127.151 19.3169C127.137 19.3169 127.128 19.3166 127.124 19.3166H124.424C124.371 19.3166 123.929 19.3142 123.601 18.9623C123.389 18.7358 123.345 18.4159 123.336 18.2741C123.335 18.2741 123.334 18.2745 123.333 18.2745H123.015C122.976 18.2745 122.627 18.2512 122.324 17.9987C122.034 17.7569 121.965 17.4047 121.949 17.2313C121.947 17.2313 121.946 17.2324 121.944 17.2324H121.66C121.645 17.2334 121.625 17.2345 121.602 17.2345C121.453 17.2345 121.151 17.1987 120.859 16.9472C120.533 16.6648 120.549 16.1618 120.554 16.0871V12.7496C120.543 12.6318 120.522 12.1959 120.774 11.8527C120.94 11.6252 121.156 11.3879 121.569 11.3323C121.579 11.332 121.587 11.3271 121.597 11.3271H121.605C121.679 11.3195 121.758 11.3157 121.846 11.3205C121.855 11.3209 121.863 11.3261 121.872 11.3271H129.02C129.187 11.3122 130.134 11.2625 130.902 11.9371C131.658 12.6023 131.715 13.2488 131.774 13.9338L131.779 13.9946C131.838 14.6737 131.899 15.376 132.039 15.8523C132.186 16.3525 132.634 17.875 133.606 19.2068C134.144 19.9429 134.725 20.7766 135.239 21.5123C135.681 22.1459 136.098 22.7441 136.398 23.1505C137.081 24.078 138.061 26.0132 138.611 27.9167C139.053 29.442 139.15 31.2734 138.9 33.3597C138.727 34.8078 137.984 36.685 137.952 36.7642L137.908 36.8761L137.804 36.9362C137.744 36.9709 136.31 37.7886 133.019 38.648C129.142 41.6413 125.195 42.4923 121.959 42.4923C117.734 42.492 114.722 41.0414 114.67 41.015C114.498 40.9299 114.428 40.7218 114.513 40.5498C114.598 40.3779 114.807 40.3077 114.978 40.3925C115.068 40.4369 124.047 44.746 132.649 38.0554L132.706 38.0113L132.776 37.9932C135.523 37.2807 136.97 36.5874 137.352 36.3901C137.516 35.9614 138.072 34.4389 138.211 33.277C138.449 31.2834 138.36 29.5449 137.944 28.1095C137.422 26.3036 136.469 24.4187 135.838 23.5625C135.534 23.1488 135.114 22.5468 134.669 21.9097C134.158 21.1771 133.578 20.3465 133.045 19.6164C132.001 18.187 131.528 16.5772 131.373 16.0482C131.213 15.5053 131.149 14.7678 131.087 14.0547L131.082 13.9942C131.022 13.3016 130.966 12.9191 130.443 12.4595C129.854 11.9423 129.084 12.0191 129.078 12.0201L121.643 12.0219C121.508 12.0451 121.441 12.1181 121.334 12.2633C121.238 12.3939 121.239 12.6204 121.246 12.6871L121.249 12.7093L121.248 16.1107C121.241 16.216 121.271 16.3855 121.313 16.4216C121.461 16.5491 121.603 16.5404 121.599 16.5411L121.944 16.5376V13.478C121.931 13.361 121.913 12.9827 122.155 12.71C122.441 12.3883 122.742 12.3935 123.092 12.3974C123.284 12.4001 123.437 12.5575 123.434 12.7496C123.432 12.9417 123.285 13.0872 123.082 13.0921C122.75 13.0865 122.736 13.1018 122.674 13.1716C122.634 13.2161 122.625 13.3391 122.634 13.4037L122.639 17.1316C122.639 17.1945 122.663 17.3772 122.769 17.4648C122.888 17.5645 123.037 17.5791 123.031 17.5798H123.333L123.334 14.797C123.33 14.7393 123.304 14.2245 123.646 13.9036C123.904 13.6604 124.268 13.5416 124.723 13.5468C124.914 13.5496 125.068 13.7069 125.065 13.899C125.062 14.0911 124.891 14.2474 124.713 14.2415C124.445 14.2349 124.244 14.2943 124.121 14.41C124.041 14.485 124.023 14.6747 124.028 14.772V18.2092C124.03 18.2901 124.06 18.436 124.108 18.4878C124.23 18.6177 124.416 18.6219 124.419 18.6219H127.138C127.226 18.6219 127.382 18.5937 127.419 18.5447C127.485 18.4555 127.504 18.2717 127.502 18.1876V17.6235C126.936 17.6214 126.412 17.6173 126.105 17.6148C126.087 17.7896 125.945 17.9271 125.765 17.9271C125.573 17.9271 125.418 17.7715 125.418 17.5798V16.5376C125.418 16.3459 125.573 16.1903 125.765 16.1903C125.957 16.1903 126.112 16.3459 126.112 16.5376V16.9201C126.55 16.9239 127.432 16.9305 128.242 16.9305C128.583 16.9305 128.839 16.8433 129.003 16.671C129.255 16.4074 129.239 16.0072 129.239 15.9843V14.8008C129.239 14.6091 129.394 14.4534 129.586 14.4534C129.778 14.4534 129.933 14.6091 129.933 14.8008L129.933 15.9628C129.934 15.9909 129.97 16.6571 129.513 17.1428C129.302 17.3672 129.025 17.5092 128.694 17.577C128.845 18.0581 129.091 18.9682 129.075 19.7529C129.063 20.3882 128.939 21.3522 128.808 22.3727C128.721 23.0512 128.631 23.7528 128.58 24.3225C128.465 25.6227 128.661 28.0015 128.884 28.748C129.423 29.3614 129.704 29.8749 129.733 29.9287C129.824 30.0975 129.761 30.3084 129.592 30.399C129.539 30.4272 129.483 30.4404 129.428 30.4404C129.304 30.4404 129.184 30.3744 129.121 30.2573C129.105 30.2264 127.415 27.1428 124.106 27.2105C121.368 27.2609 120.306 28.9766 119.852 29.7092C119.775 29.8335 119.713 29.9325 119.663 29.9968C119.546 30.1482 119.328 30.176 119.176 30.059C119.024 29.9416 118.997 29.7234 119.114 29.5716C119.153 29.5209 119.201 29.442 119.262 29.3437C119.462 29.0207 119.805 28.4698 120.372 27.9393C119.726 27.4547 118.026 26.4144 115.409 26.4859C112.06 26.5825 110.331 28.5458 110.314 28.5653C110.246 28.6455 110.148 28.6872 110.05 28.6872C109.97 28.6872 109.89 28.6601 109.825 28.6042C109.679 28.4795 109.662 28.2603 109.786 28.114Z" fill="black"/>
<path d="M119.827 36.4488C125.103 39.3066 128.797 35.3616 128.952 35.1921C129.081 35.051 129.3 35.0403 129.442 35.1698C129.584 35.2987 129.594 35.5179 129.465 35.66C129.435 35.6937 127.135 38.1652 123.597 38.1652C122.365 38.1652 120.984 37.8658 119.495 37.0595C119.327 36.9682 119.264 36.7577 119.356 36.5888C119.447 36.42 119.658 36.3575 119.827 36.4488Z" fill="black"/>
</svg>
